<?xml version="1.0" standalone="no"?>
<!DOCTYPE svg PUBLIC "-//W3C//DTD SVG 20010904//EN"
 "http://www.w3.org/TR/2001/REC-SVG-20010904/DTD/svg10.dtd">
<svg version="1.0" xmlns="http://www.w3.org/2000/svg"
 width="40.000000pt" height="40.000000pt" viewBox="0 0 40.000000 40.000000"
 preserveAspectRatio="xMidYMid meet">

<g transform="translate(0.000000,40.000000) scale(0.100000,-0.100000)"
fill="#000000" stroke="none">
<path d="M235 313 c39 -6 55 -20 55 -49 0 -22 -5 -24 -47 -25 -34 -2 -39 -3
-18 -6 17 -3 38 -12 48 -20 23 -22 23 -94 0 -116 -24 -21 -148 -26 -166 -7 -9
10 -7 10 7 0 18 -14 18 -14 5 7 -7 12 -13 21 -14 20 0 -1 -8 -11 -17 -22 -16
-20 -16 -22 7 -49 14 -16 25 -26 25 -21 0 4 7 2 15 -5 8 -7 15 -10 15 -6 0 3
11 1 25 -4 39 -15 121 12 162 53 41 41 68 123 53 162 -5 14 -7 25 -4 25 4 0 1
6 -5 13 -6 8 -8 17 -4 20 3 4 -1 7 -11 7 -9 0 -19 7 -22 15 -10 25 -34 -2 -35
-39 -2 -27 -2 -28 -6 -6 -7 38 -32 60 -67 59 l-31 -2 30 -4z m72 -175 c-2 -13
-4 -3 -4 22 0 25 2 35 4 23 2 -13 2 -33 0 -45z"/>
<path d="M181 244 c0 -11 3 -14 6 -6 3 7 2 16 -1 19 -3 4 -6 -2 -5 -13z"/>
<path d="M143 163 c20 -2 37 -8 37 -14 0 -5 7 -9 15 -9 8 0 15 7 15 15 0 12
-12 15 -52 13 -44 -1 -46 -2 -15 -5z"/>
</g>
</svg>
